<?xml version="1.0" standalone="no"?>
<!DOCTYPE svg PUBLIC "-//W3C//DTD SVG 20010904//EN"
 "http://www.w3.org/TR/2001/REC-SVG-20010904/DTD/svg10.dtd">
<svg version="1.0" xmlns="http://www.w3.org/2000/svg"
 width="1024.000000pt" height="1024.000000pt" viewBox="0 0 1024.000000 1024.000000"
 preserveAspectRatio="xMidYMid meet">
<metadata>
Created by potrace 1.14, written by Peter Selinger 2001-2017
</metadata>
<g transform="translate(0.000000,1024.000000) scale(0.100000,-0.100000)"
fill="#000000" stroke="none">
<path d="M5566 9058 c-17 -26 -43 -216 -33 -241 4 -11 18 -17 37 -17 38 0 45
15 61 148 10 82 10 103 0 116 -19 23 -48 20 -65 -6z"/>
<path d="M5072 8988 c-13 -36 -6 -256 8 -273 18 -22 57 -18 70 6 18 33 9 267
-10 279 -27 17 -60 11 -68 -12z"/>
<path d="M6048 8958 c-8 -18 -30 -79 -49 -135 -36 -112 -33 -133 22 -133 24 0
30 6 47 53 73 197 77 240 26 245 -27 3 -33 -2 -46 -30z"/>
<path d="M3342 8968 c-7 -7 -12 -21 -12 -33 0 -47 62 -63 81 -21 22 47 -33 90
-69 54z"/>
<path d="M2901 8862 c-25 -69 -38 -83 -114 -116 -31 -14 -57 -29 -57 -33 0 -5
33 -24 73 -43 71 -34 72 -36 96 -97 14 -35 30 -63 37 -63 6 0 22 25 34 55 26
64 62 98 131 122 27 10 48 22 46 28 -2 5 -29 19 -59 30 -73 26 -91 44 -117
116 -12 32 -28 59 -35 59 -7 0 -23 -26 -35 -58z"/>
<path d="M4604 8855 c-20 -30 -11 -62 21 -77 52 -23 99 46 59 86 -23 24 -61
20 -80 -9z"/>
<path d="M4172 8744 c-28 -19 -28 -37 4 -143 38 -129 50 -151 78 -151 34 0 50
24 42 63 -13 70 -66 231 -78 238 -18 12 -20 11 -46 -7z"/>
<path d="M5501 8686 c-6 -7 -19 -57 -28 -110 -13 -77 -13 -99 -3 -111 17 -21
57 -19 69 4 8 14 41 174 41 197 0 1 -7 10 -16 18 -19 20 -48 21 -63 2z"/>
<path d="M4654 8682 c-6 -4 -13 -14 -16 -22 -5 -14 20 -168 36 -216 9 -29 41
-36 67 -15 20 16 20 17 4 116 -10 55 -23 110 -31 123 -14 22 -39 28 -60 14z"/>
<path d="M8078 8570 c35 -32 41 -46 16 -36 -9 3 -12 2 -9 -5 4 -5 15 -7 24 -4
20 6 46 -38 35 -57 -4 -6 -3 -8 3 -5 16 10 41 -51 67 -168 8 -33 22 -87 32
-120 26 -91 24 -307 -3 -401 -44 -151 -130 -273 -268 -380 -170 -132 -492
-165 -717 -74 -83 34 -207 107 -262 155 -22 19 -44 31 -49 28 -6 -3 -7 -2 -4
4 3 5 -23 38 -58 73 -36 34 -65 58 -65 52 0 -6 5 -14 10 -17 6 -4 7 -11 4 -17
-4 -7 -2 -8 4 -4 11 7 17 -7 12 -29 -1 -5 2 -7 5 -3 4 4 16 -4 27 -17 11 -14
24 -22 30 -19 6 4 8 3 5 -2 -3 -6 35 -50 85 -100 49 -49 120 -124 155 -166 36
-43 69 -75 74 -73 4 3 11 0 15 -6 5 -8 3 -9 -6 -4 -8 5 -11 3 -8 -6 3 -8 12
-13 19 -11 8 2 11 0 7 -3 -10 -10 11 -47 22 -40 5 3 12 0 16 -6 5 -8 3 -9 -6
-4 -8 5 -11 3 -8 -6 3 -8 14 -13 24 -11 15 2 16 1 5 -7 -12 -8 -12 -12 -2 -25
7 -9 18 -13 24 -9 6 3 7 1 3 -5 -8 -13 23 -72 38 -72 5 0 6 -3 3 -6 -4 -4 2
-19 12 -33 53 -74 170 -353 196 -466 11 -49 12 -47 19 80 4 72 9 142 9 157 1
14 6 24 11 20 5 -3 7 5 3 17 -3 13 -3 20 0 17 3 -3 19 22 34 55 44 92 125 166
256 233 114 58 250 150 246 167 -2 5 3 8 10 6 6 -1 11 4 9 11 -1 8 2 11 7 7 6
-3 31 20 56 52 89 113 159 259 190 398 25 111 17 311 -17 413 -13 40 -28 69
-33 65 -4 -4 -5 -3 -1 4 9 16 -21 86 -34 78 -6 -4 -7 1 -3 11 5 13 3 15 -7 9
-8 -5 -11 -4 -6 3 8 13 -39 98 -53 95 -6 -2 -8 3 -5 10 6 16 -90 122 -104 113
-6 -3 -14 -1 -18 5 -4 8 -3 9 4 5 27 -16 10 13 -20 37 -18 13 -44 34 -57 46
-13 11 -27 21 -30 21 -3 0 9 -14 27 -30z m185 -195 c-3 -9 -8 -14 -10 -11 -3
3 -2 9 2 15 9 16 15 13 8 -4z m41 -43 c3 -5 -1 -9 -9 -9 -8 0 -12 4 -9 9 3 4
7 8 9 8 2 0 6 -4 9 -8z m-1283 -899 c13 -16 12 -17 -3 -4 -10 7 -18 15 -18 17
0 8 8 3 21 -13z m154 -163 l20 -25 -22 19 c-13 11 -23 24 -23 29 0 6 1 8 3 6
1 -2 11 -15 22 -29z"/>
<path d="M5086 8577 c-14 -10 -16 -32 -14 -152 l3 -140 30 -3 c47 -6 55 16 55
154 0 85 -4 124 -12 131 -24 18 -46 22 -62 10z"/>
<path d="M3278 8506 c-12 -27 -4 -43 84 -176 44 -67 74 -84 104 -60 24 21 16
41 -56 153 -59 89 -75 107 -95 107 -17 0 -29 -8 -37 -24z"/>
<path d="M3793 8504 c-7 -3 -13 -19 -13 -35 0 -34 55 -165 81 -193 17 -18 19
-18 43 -2 35 23 33 46 -17 146 -41 84 -58 99 -94 84z"/>
<path d="M6380 8408 c-11 -18 -20 -36 -20 -40 0 -4 -11 -31 -24 -60 -38 -84
-40 -97 -20 -119 36 -40 59 -21 109 96 40 91 44 130 16 145 -31 16 -40 12 -61
-22z"/>
<path d="M5726 8385 c-8 -8 -17 -23 -20 -33 -45 -153 -66 -233 -66 -245 0 -17
21 -27 55 -27 21 0 27 12 59 115 52 163 53 169 25 189 -29 20 -34 20 -53 1z"/>
<path d="M8172 8350 c0 -14 2 -19 5 -12 2 6 2 18 0 25 -3 6 -5 1 -5 -13z"/>
<path d="M4274 8350 c-12 -5 -24 -15 -27 -24 -3 -8 11 -77 32 -153 l39 -138
32 2 c18 0 36 5 42 11 9 9 -44 246 -63 283 -11 22 -29 28 -55 19z"/>
<path d="M2846 8321 c-11 -12 -15 -27 -12 -38 4 -10 51 -65 106 -122 96 -102
99 -104 122 -89 43 28 34 49 -68 161 -53 59 -104 107 -114 107 -9 0 -25 -9
-34 -19z"/>
<path d="M4811 8283 c-24 -16 -26 -40 -10 -113 l11 -51 41 3 42 3 -4 60 c-2
33 -7 69 -11 81 -11 28 -43 36 -69 17z"/>
<path d="M6032 8288 c-11 -14 -88 -211 -93 -241 -3 -14 6 -23 34 -34 21 -9 39
-14 41 -12 11 14 96 243 96 259 0 33 -57 53 -78 28z"/>
<path d="M5371 8276 c-10 -12 -30 -109 -31 -148 0 -5 20 -8 44 -8 l44 0 12 67
c13 64 12 67 -10 85 -27 22 -44 23 -59 4z"/>
<path d="M6709 8141 c-39 -39 -40 -87 -3 -102 15 -5 28 -8 29 -7 4 3 35 123
35 132 0 16 -35 3 -61 -23z"/>
<path d="M3611 8041 c-26 -17 -13 -61 49 -165 l62 -106 28 15 c16 8 32 19 35
25 6 10 -85 190 -113 223 -16 19 -39 22 -61 8z"/>
<path d="M6232 8018 c-11 -14 -42 -74 -42 -82 0 -5 59 -26 75 -26 7 0 20 17
29 39 14 30 16 43 7 60 -13 23 -53 28 -69 9z"/>
<path d="M3132 8008 c-24 -24 -11 -56 54 -131 71 -82 96 -93 129 -57 17 19 17
21 -9 57 -45 66 -123 143 -143 143 -10 0 -24 -5 -31 -12z"/>
<path d="M3999 7994 c-7 -20 -6 -32 6 -50 18 -28 26 -29 65 -9 35 18 35 18 13
56 -23 39 -69 41 -84 3z"/>
<path d="M6539 7928 c-35 -56 -59 -104 -59 -117 0 -10 59 -46 65 -39 1 2 21
33 44 70 52 82 53 121 6 126 -26 2 -34 -3 -56 -40z"/>
<path d="M2640 7910 c-11 -11 -20 -24 -20 -29 0 -14 29 -43 112 -115 88 -74
120 -84 140 -40 12 26 9 30 -52 87 -70 65 -138 117 -152 117 -4 0 -17 -9 -28
-20z"/>
<path d="M4555 7720 c-142 -30 -249 -103 -333 -227 -19 -28 -26 -32 -42 -23
-25 13 -126 13 -192 -1 -189 -40 -341 -194 -378 -385 l-12 -61 -60 -17 c-201
-56 -342 -205 -384 -406 -9 -41 -14 -100 -11 -130 4 -53 3 -55 -48 -115 -73
-87 -104 -158 -118 -271 l-12 -94 -51 -34 c-178 -120 -251 -364 -170 -567 14
-36 26 -69 26 -73 0 -5 -13 -24 -30 -42 -115 -131 -131 -340 -39 -501 l30 -53
-45 -54 c-57 -66 -102 -164 -118 -253 l-11 -68 -82 -59 c-45 -33 -86 -61 -92
-63 -6 -2 -13 38 -16 99 -4 57 -12 121 -18 143 -10 34 -13 37 -23 23 -7 -10
-18 -68 -25 -130 -7 -62 -13 -114 -15 -115 -2 -3 -137 145 -348 382 -126 141
-168 176 -168 142 0 -8 52 -82 115 -166 63 -83 167 -220 231 -303 l116 -153
-99 -7 c-131 -10 -163 -16 -163 -32 0 -19 30 -26 147 -33 57 -3 103 -8 103
-10 0 -3 -27 -35 -61 -71 -74 -81 -83 -96 -65 -111 13 -11 49 9 149 83 26 20
47 31 47 24 0 -27 21 -194 26 -210 5 -17 34 -26 34 -10 0 4 5 34 10 67 5 33
10 82 11 108 2 46 3 47 22 30 59 -52 270 -294 359 -410 39 -51 46 -66 51 -123
4 -36 10 -82 13 -102 6 -32 4 -38 -11 -38 -10 0 -123 27 -251 60 -128 33 -238
60 -245 60 -32 0 17 -434 80 -708 72 -309 222 -628 377 -801 l46 -51 -134 0
c-153 0 -157 2 -197 90 -18 40 -20 58 -14 165 l6 120 -33 64 c-47 94 -80 141
-99 141 -24 0 -47 -53 -67 -151 -28 -138 -3 -239 82 -325 30 -31 54 -57 54
-59 0 -2 -37 19 -83 46 -183 112 -242 174 -314 327 -24 50 -46 92 -51 92 -33
-1 -40 -47 -17 -119 7 -20 -2 -16 -64 29 -39 28 -94 78 -123 111 -28 32 -59
59 -69 59 -17 0 -43 -32 -34 -42 3 -2 10 -40 16 -84 16 -112 43 -176 89 -218
59 -53 128 -67 229 -45 l51 11 87 -71 c49 -39 112 -83 140 -98 29 -16 53 -31
53 -35 0 -5 -126 -8 -279 -8 l-280 0 -20 -26 c-27 -34 -27 -67 2 -98 l22 -25
1393 -5 1392 -5 46 -32 c117 -80 354 -168 529 -195 132 -20 365 -15 490 11
154 31 351 108 476 185 l50 30 1196 7 1197 6 23 23 c30 30 30 74 0 102 -18 17
-36 22 -80 22 l-57 0 0 550 0 551 -26 26 -26 26 -174 -7 c-149 -6 -174 -5
-174 8 0 8 29 99 63 203 93 274 141 439 134 457 -5 14 -18 15 -79 10 -202 -16
-378 -38 -517 -65 -84 -17 -155 -28 -158 -25 -3 3 13 27 35 53 23 27 56 80 74
118 31 67 33 76 34 195 0 115 3 128 25 165 46 73 61 126 67 228 4 90 6 97 26
97 27 0 107 24 143 44 l28 15 -119 113 c-76 73 -117 119 -114 128 4 11 30 -10
84 -66 150 -154 279 -291 312 -332 35 -44 68 -67 76 -54 3 5 -24 71 -59 147
-35 77 -60 144 -56 150 4 5 22 29 40 52 l33 41 40 -14 c52 -18 58 -18 58 5 0
11 -12 23 -30 31 -42 18 -49 29 -43 80 l5 45 127 23 c69 12 174 29 234 38 68
11 107 21 107 29 0 7 -49 26 -112 44 -62 18 -164 48 -226 67 -121 38 -126 42
-134 114 -3 32 1 37 40 58 60 33 54 46 -17 39 l-60 -5 -25 38 c-22 33 -23 40
-11 50 8 7 44 58 80 114 61 96 77 136 56 136 -5 0 -60 -36 -121 -80 l-112 -79
-37 20 c-20 11 -58 33 -86 49 -39 22 -138 49 -152 41 -1 0 -5 -112 -8 -248
l-6 -246 34 49 c32 46 423 424 440 424 23 0 -285 -364 -387 -458 -32 -28 -63
-52 -70 -52 -8 0 -18 23 -24 56 -14 67 -59 165 -105 224 l-34 44 23 53 c57
129 53 265 -11 389 -45 86 -86 134 -161 189 l-64 47 0 52 c0 106 -44 212 -122
300 l-48 54 0 99 c0 77 -5 112 -24 164 -57 163 -196 291 -363 334 -31 8 -60
20 -64 26 -3 6 -9 32 -13 57 -16 114 -120 257 -240 327 -91 53 -243 79 -326
56 -22 -6 -30 0 -66 49 -79 107 -173 168 -302 196 -223 47 -435 -42 -561 -236
l-36 -56 -17 36 c-48 98 -162 197 -275 240 -65 24 -219 35 -288 20z m254 -226
c84 -38 143 -106 170 -196 13 -40 27 -80 32 -88 46 -76 44 -62 46 -340 1 -176
-1 -250 -7 -222 -10 46 -38 98 -68 125 -17 16 -19 14 -30 -42 -7 -33 -17 -61
-22 -63 -6 -2 -2 -21 10 -45 11 -23 26 -72 34 -107 14 -66 47 -135 72 -149 10
-6 14 -30 14 -90 l0 -82 -21 34 c-25 41 -39 29 -39 -36 0 -23 -7 -68 -15 -99
-12 -46 -12 -60 -2 -67 8 -6 6 -7 -7 -3 -14 5 -17 2 -12 -9 3 -9 2 -14 -2 -11
-5 3 -17 -9 -27 -27 l-18 -32 23 20 23 20 -7 -25 c-5 -18 -5 -21 3 -10 8 12
14 11 35 -10 24 -22 25 -25 11 -46 -22 -35 -18 -40 10 -14 14 13 25 32 25 42
0 11 5 16 10 13 6 -4 10 -138 10 -371 0 -295 -3 -364 -13 -364 -31 0 -97 -112
-97 -165 0 -30 62 -150 78 -151 7 -1 17 -2 22 -3 6 -1 10 -61 10 -159 l0 -158
-46 -13 c-61 -18 -81 -48 -65 -100 6 -21 11 -50 11 -64 l0 -26 46 19 c25 11
48 20 50 20 2 0 4 -39 4 -87 l0 -88 -117 -33 c-190 -53 -387 -159 -540 -289
-95 -81 -198 -212 -295 -374 -28 -46 -78 -168 -104 -249 -51 -165 -59 -231
-59 -472 l0 -226 -35 14 c-71 29 -131 92 -155 160 l-13 39 -79 6 c-94 6 -154
31 -217 89 -52 48 -111 158 -121 224 -7 43 -8 44 -53 51 -69 10 -125 38 -181
90 -87 82 -114 185 -87 335 16 85 16 85 -7 100 -132 89 -186 215 -158 374 l12
67 -35 57 c-43 68 -59 143 -46 210 12 64 18 79 56 137 30 46 143 147 179 161
11 5 -4 24 -54 70 -84 78 -113 138 -113 230 1 83 36 157 118 244 35 37 64 71
64 75 0 4 -20 29 -44 56 -73 81 -94 182 -60 283 22 65 101 148 177 186 l62 31
0 118 c1 112 2 121 33 183 21 44 52 84 89 118 l56 51 1 122 c1 113 3 126 29
176 68 129 202 201 375 201 l42 0 0 98 c0 86 3 104 28 157 81 171 260 225 497
150 17 -5 22 2 37 52 30 105 116 191 218 220 67 19 181 9 249 -23z m956 1 c69
-33 134 -105 159 -176 10 -30 22 -58 27 -63 4 -5 46 -1 95 9 199 39 343 -19
422 -170 21 -41 27 -68 32 -150 l5 -100 85 -8 c206 -18 343 -148 357 -338 3
-41 1 -91 -5 -112 l-11 -39 63 -59 c94 -87 119 -149 124 -302 l4 -117 62 -31
c181 -89 252 -278 160 -425 -33 -53 -70 -84 -102 -87 -12 -1 -22 -8 -23 -17 0
-10 -2 -11 -6 -2 -6 14 -39 16 -48 2 -3 -6 3 -10 13 -10 11 0 25 -7 32 -15 7
-8 18 -15 24 -15 6 0 4 5 -4 10 -10 6 -3 8 25 7 36 -3 46 -10 96 -70 82 -97
94 -126 94 -222 0 -70 -4 -87 -30 -134 -16 -29 -56 -77 -89 -106 l-59 -53 34
-28 c67 -55 148 -142 170 -185 15 -29 24 -69 27 -117 6 -86 -12 -141 -64 -204
-23 -26 -33 -47 -28 -57 3 -9 8 -56 11 -106 7 -126 -15 -182 -104 -265 l-65
-62 10 -56 c20 -104 22 -139 11 -197 -25 -136 -139 -246 -271 -262 -27 -3 -51
-11 -53 -17 -1 -6 -8 -33 -14 -61 -17 -73 -69 -152 -127 -196 -28 -22 -53 -39
-55 -39 -2 0 -6 30 -7 68 -6 147 -81 432 -149 566 -59 117 -195 301 -264 358
l-40 34 38 52 38 53 95 2 c127 4 182 28 244 111 59 79 80 147 74 242 -14 215
-211 372 -419 334 -84 -15 -125 -38 -182 -99 -94 -100 -115 -212 -63 -326 l26
-57 -26 -32 c-15 -17 -39 -45 -54 -63 l-28 -32 -65 35 c-165 88 -378 141 -599
151 l-138 6 0 86 c0 47 4 81 8 74 7 -12 73 -43 90 -43 5 0 10 26 11 57 1 31 5
61 8 67 4 5 -18 31 -48 58 -52 45 -54 47 -61 25 -3 -12 -6 61 -6 163 -1 128 2
178 9 161 l10 -24 28 39 c62 84 61 165 -4 239 -33 39 -34 39 -37 15 -6 -69
-13 257 -10 488 l3 262 21 -22 c18 -21 19 -21 12 -3 -4 11 -10 40 -13 65 l-5
45 -7 -35 c-3 -19 -7 93 -7 250 0 157 3 274 7 260 4 -14 6 -43 5 -64 l-2 -39
24 29 c13 17 30 60 40 104 9 41 23 87 31 103 7 15 11 27 8 27 -4 0 0 7 8 15
12 11 13 23 7 47 -4 18 -11 51 -15 73 l-7 40 -44 -50 c-25 -28 -47 -64 -50
-83 -4 -18 -9 -31 -11 -28 -7 7 -3 473 4 494 3 9 16 31 28 47 12 17 25 50 29
73 17 113 111 217 224 249 69 19 180 9 247 -22z m2056 -2111 c17 -8 29 -20 27
-26 -2 -5 -31 -25 -64 -44 l-61 -34 8 50 c4 27 11 54 14 60 9 15 42 12 76 -6z
m-551 -84 c0 -5 -4 -10 -10 -10 -5 0 -10 5 -10 10 0 6 5 10 10 10 6 0 10 -4
10 -10z m744 -25 c-3 -14 -21 -60 -40 -103 l-33 -77 -46 -3 c-25 -2 -45 0 -45
3 0 3 11 17 24 31 13 15 48 59 77 99 57 78 73 91 63 50z m231 -325 c115 -11
218 -20 229 -20 11 0 17 -3 14 -6 -9 -8 -360 -42 -516 -50 -136 -6 -138 -6
-192 21 -70 36 -110 63 -110 77 0 16 312 4 575 -22z m-600 -248 c-4 -45 -10
-80 -15 -77 -4 3 -24 27 -43 54 l-35 49 24 36 c14 20 35 62 47 93 l22 58 3
-65 c2 -36 1 -102 -3 -148z m157 163 c21 -14 43 -35 49 -46 7 -15 18 -20 34
-17 13 3 28 2 34 -1 9 -6 31 -97 45 -181 1 -8 24 -59 50 -114 25 -54 45 -100
43 -102 -2 -2 -37 47 -77 109 -136 207 -236 377 -222 377 4 0 24 -11 44 -25z
m-84 -232 c23 -25 42 -54 42 -64 0 -21 -46 -60 -64 -53 -41 16 -64 164 -26
164 3 0 25 -21 48 -47z m-1333 -32 c-62 -21 -139 -92 -171 -158 -13 -26 -24
-42 -24 -35 0 7 7 26 15 42 9 17 11 30 6 30 -14 0 -25 -38 -28 -90 -1 -25 -3
-54 -4 -65 -1 -11 1 -28 6 -37 4 -11 3 -18 -3 -18 -6 0 -16 24 -23 54 -15 69
-1 128 47 191 40 52 130 100 189 102 l40 1 -50 -17z m92 -7 c-3 -3 -12 -4 -19
-1 -8 3 -5 6 6 6 11 1 17 -2 13 -5z m83 -45 c0 -5 5 -7 10 -4 6 3 10 1 10 -6
0 -8 5 -7 17 2 17 13 17 13 0 -13 -12 -19 -14 -29 -5 -34 6 -4 8 -3 4 4 -3 6
-1 14 5 17 15 10 37 -24 31 -47 -4 -18 -7 -17 -33 8 -16 15 -26 31 -23 36 3 4
1 8 -5 8 -6 0 -25 9 -43 20 l-33 20 33 0 c17 0 32 -5 32 -11z m-63 -78 c50
-23 92 -82 100 -140 7 -53 -18 -121 -56 -149 l-28 -21 -13 41 c-17 59 -37 85
-86 114 -33 20 -54 25 -91 23 -44 -3 -48 -2 -52 21 -8 61 68 130 144 130 22 0
59 -9 82 -19z m165 -45 c7 4 8 2 4 -5 -9 -13 -26 -5 -25 12 0 9 2 8 6 -1 2 -6
10 -9 15 -6z m29 -138 c2 -27 1 -48 -3 -48 -5 0 -9 6 -9 13 -1 6 -4 -1 -8 -18
-5 -19 -7 0 -7 51 1 63 3 78 12 65 7 -9 13 -37 15 -63z m-4121 -28 c0 -11 9
-42 19 -70 l19 -50 -85 0 c-46 0 -83 4 -81 9 5 14 112 129 121 130 4 1 7 -8 7
-19z m3755 8 c-40 -14 -42 -17 -25 -29 13 -9 13 -10 1 -7 -38 11 -7 47 39 47
8 -1 2 -5 -15 -11z m-50 -38 c3 -5 1 -10 -4 -10 -6 0 -11 5 -11 10 0 6 2 10 4
10 3 0 8 -4 11 -10z m80 0 c-3 -5 -12 -10 -18 -10 -7 0 -6 4 3 10 19 12 23 12
15 0z m44 -21 c-5 -10 -24 -26 -42 -38 -18 -11 -68 -57 -111 -102 -70 -73 -79
-79 -90 -63 -7 9 -18 14 -23 11 -11 -7 -40 20 -31 28 2 2 26 29 52 60 27 30
56 55 64 55 12 0 11 -4 -6 -16 -12 -8 -22 -20 -22 -26 0 -7 6 -6 15 2 12 10
15 9 16 -6 0 -11 3 -14 6 -6 2 6 9 12 14 12 6 0 7 -5 3 -11 -3 -6 5 -3 20 6
14 10 26 21 26 25 0 5 8 11 18 14 17 6 26 46 10 46 -4 0 -8 5 -8 11 0 8 4 8
15 -1 8 -6 20 -8 26 -4 8 4 9 3 5 -4 -8 -14 -4 -15 18 -6 13 5 14 10 5 20 -8
10 -6 13 9 11 16 -1 18 -5 11 -18z m283 -11 c-8 -8 -9 -4 -5 13 4 13 8 18 11
10 2 -7 -1 -18 -6 -23z m-432 18 c0 -2 -8 -10 -17 -17 -16 -13 -17 -12 -4 4
13 16 21 21 21 13z m384 -36 c-10 -16 -20 -28 -22 -26 -4 5 28 56 35 56 2 0
-4 -13 -13 -30z m-1092 -10 c197 -30 428 -127 583 -243 90 -67 259 -233 251
-246 -4 -6 3 -15 15 -22 17 -9 19 -13 8 -20 -10 -6 -11 -9 -1 -9 6 0 12 -9 12
-19 0 -11 5 -23 10 -26 6 -3 10 -11 10 -16 0 -6 -4 -7 -10 -4 -5 3 -10 1 -10
-4 0 -6 5 -11 11 -11 7 0 9 -9 6 -21 -4 -14 11 -58 37 -118 58 -128 97 -254
99 -317 1 -29 5 -50 9 -48 11 7 21 -183 14 -269 -10 -114 -26 -206 -39 -214
-6 -4 -8 2 -4 17 7 26 -20 73 -35 64 -6 -4 -8 -25 -5 -48 4 -23 3 -33 -2 -22
-4 12 -7 0 -8 -35 l0 -54 12 43 c8 24 11 60 9 80 -4 25 -2 32 4 22 23 -37 21
-119 -4 -197 -65 -200 -197 -394 -364 -535 -49 -42 -64 -46 -88 -21 -15 15
-15 16 -1 11 9 -4 21 -2 27 4 12 12 5 38 -10 38 -6 0 -8 -7 -5 -14 4 -10 1
-13 -7 -10 -12 5 -44 -23 -35 -30 2 -1 15 -10 29 -19 13 -9 20 -17 14 -17 -6
0 -23 9 -37 20 -25 20 -28 20 -52 4 -13 -9 -23 -20 -20 -24 3 -5 -4 -11 -15
-15 -24 -8 -26 -21 -4 -29 24 -9 41 -7 24 4 -8 5 -11 12 -7 17 5 4 12 1 17 -7
7 -12 12 -12 22 -2 6 6 17 12 22 12 6 0 -5 -11 -24 -24 -30 -20 -38 -22 -54
-11 -10 8 -26 11 -35 7 -14 -5 -14 -4 -1 13 14 17 14 18 -8 6 -13 -7 -26 -11
-28 -8 -3 2 35 27 83 55 49 28 116 76 151 107 34 31 62 54 62 50 0 -3 6 0 14
7 8 7 12 16 10 20 -2 4 0 9 5 13 6 3 8 -5 5 -20 -3 -20 -1 -23 13 -19 16 5 15
4 -1 -10 -18 -14 -16 -17 12 -16 4 0 6 11 4 23 -1 12 -3 31 -5 43 -2 20 49 91
59 81 3 -2 -9 -18 -26 -35 l-30 -31 27 3 c20 3 27 8 25 21 -2 9 5 26 15 38 10
11 12 17 5 13 -10 -6 -13 -3 -10 10 2 11 10 18 17 16 7 -1 10 1 7 6 -3 5 6 26
20 46 33 48 99 178 96 189 -1 5 2 6 8 2 6 -4 5 -18 -5 -41 -7 -18 -10 -34 -4
-34 5 0 9 8 9 18 1 11 6 7 16 -13 14 -29 14 -26 0 25 -7 24 -7 25 10 5 16 -20
16 -19 9 5 -4 14 -14 33 -23 43 -8 9 -12 20 -9 24 4 3 7 1 7 -5 0 -7 5 -12 10
-12 6 0 10 8 10 18 0 10 4 22 10 28 6 6 5 15 -1 24 -9 13 -10 12 -6 -2 3 -9
-1 -22 -10 -30 -14 -11 -15 -10 -10 7 81 257 83 493 5 750 -16 55 -41 122 -54
148 -13 27 -21 54 -17 59 3 7 1 8 -5 4 -7 -4 -12 -2 -12 4 0 6 -11 26 -25 44
-14 18 -25 38 -25 44 0 7 -4 12 -10 12 -5 0 -6 7 -3 17 4 10 2 14 -4 10 -6 -4
-26 12 -46 36 -19 23 -57 64 -85 91 -28 28 -48 54 -45 59 3 6 1 7 -5 3 -16
-10 -52 29 -47 52 2 11 -2 19 -10 19 -8 0 -13 -3 -12 -6 1 -3 -2 -7 -8 -7 -12
-2 -128 76 -133 88 -2 4 -8 6 -13 3 -10 -7 -47 11 -69 34 -13 13 -13 14 3 8
10 -4 25 -7 33 -7 8 0 14 -6 14 -13 0 -11 26 -15 63 -8 4 0 7 19 7 41 0 30 4
40 16 40 8 0 12 5 9 10 -4 6 -16 8 -28 5 -16 -5 -18 -4 -8 3 9 7 0 14 -35 26
-26 9 -49 14 -52 11 -3 -2 -12 0 -21 5 -10 5 -65 14 -124 21 -59 6 -107 16
-107 20 0 5 -19 7 -42 3 -29 -4 -38 -2 -29 4 21 15 -30 18 -179 10 -301 -16
-567 -108 -790 -273 -46 -33 -220 -207 -220 -218 0 -5 8 -3 18 4 15 13 16 12
3 -3 -7 -10 -17 -16 -21 -13 -11 7 -91 -115 -84 -127 3 -5 -6 -26 -20 -46 -27
-40 -77 -161 -150 -364 -49 -137 -57 -199 -30 -230 16 -17 18 -17 39 5 11 12
30 27 42 34 20 11 20 9 27 -101 4 -62 16 -150 27 -197 23 -99 61 -209 71 -209
5 0 8 -5 8 -10 0 -6 9 -29 19 -51 11 -22 17 -48 14 -57 -3 -12 -2 -13 4 -4 7
9 16 2 34 -25 70 -104 93 -133 157 -198 114 -115 178 -175 186 -175 5 0 -2 9
-15 21 l-24 20 29 -17 c27 -17 27 -18 10 -32 -18 -14 -18 -14 1 -8 11 4 22 8
25 9 3 1 24 -9 47 -22 38 -22 41 -26 25 -37 -21 -16 -8 -18 19 -4 13 8 24 8
37 0 15 -10 14 -10 -5 -5 -12 3 -24 1 -28 -5 -4 -6 4 -10 19 -10 13 0 33 -3
43 -6 15 -5 15 -4 3 5 -17 12 -10 14 14 5 9 -3 13 -11 9 -17 -3 -6 -1 -7 5 -3
6 3 37 -3 69 -14 32 -11 76 -24 98 -29 32 -7 34 -9 13 -10 -15 -1 -30 -5 -33
-11 -4 -6 6 -7 27 -2 18 4 51 7 73 6 224 -6 350 -4 405 6 64 12 241 69 280 90
11 6 32 7 47 4 l27 -7 -24 -9 c-12 -5 -20 -11 -17 -14 3 -3 16 0 28 7 16 8 24
9 27 1 2 -6 11 -9 20 -6 55 16 -101 -55 -188 -87 -108 -38 -142 -47 -220 -55
-25 -2 -63 -7 -85 -11 -37 -5 -170 -8 -254 -4 -19 1 -40 6 -47 12 -7 6 -17 8
-22 5 -8 -5 -144 28 -327 79 -33 9 -77 21 -98 26 -21 6 -35 14 -32 19 3 4 -11
7 -31 6 -19 -2 -41 2 -47 8 -7 6 -25 19 -40 29 -15 10 -25 22 -22 27 4 6 -1 7
-11 3 -13 -5 -15 -3 -9 7 6 10 4 12 -7 7 -16 -6 -93 64 -83 76 3 4 2 5 -2 2
-9 -7 -34 16 -28 25 3 5 0 12 -6 16 -8 5 -10 2 -5 -7 4 -8 -14 9 -39 36 -56
60 -159 213 -159 237 0 9 -4 14 -8 12 -11 -7 -30 35 -24 52 3 8 2 13 -3 10
-12 -8 -67 118 -91 208 -24 85 -31 135 -36 231 -3 56 -2 65 7 45 6 -14 8 -38
5 -55 -3 -16 -1 -37 4 -45 6 -10 7 12 3 65 -3 44 -6 105 -6 135 1 47 0 51 -8
25 -5 -20 -7 4 -4 70 4 105 45 289 90 410 100 264 329 513 601 652 165 85 245
109 494 146 69 11 229 5 342 -13z m755 -5 c-10 -7 -25 -22 -32 -32 -12 -14
-14 -15 -15 -3 0 9 12 23 28 32 33 21 44 23 19 3z m-3648 -137 c-16 -83 -7
-164 26 -253 7 -16 -193 241 -218 283 -6 9 15 12 96 12 l104 0 -8 -42z m3241
-18 c8 -5 11 -10 5 -10 -5 0 -17 5 -25 10 -8 5 -10 10 -5 10 6 0 17 -5 25 -10z
m-75 -50 c-3 -5 -14 -10 -23 -9 -14 0 -13 2 3 9 27 11 27 11 20 0z m-501 -25
c-9 -13 -18 -50 -20 -82 -5 -61 7 -97 38 -117 24 -14 66 26 74 71 7 38 -12
117 -33 139 -12 12 -6 14 47 14 150 0 373 -70 529 -167 101 -62 272 -234 335
-335 91 -147 151 -332 163 -502 6 -85 5 -89 -13 -81 -76 32 -106 38 -144 26
-51 -15 -67 -43 -46 -76 26 -39 102 -43 191 -9 17 7 17 2 11 -67 -10 -104 -42
-246 -72 -321 -87 -212 -264 -414 -469 -531 -153 -88 -347 -147 -485 -147
l-57 0 23 47 c29 57 30 107 4 151 -24 39 -51 41 -79 6 -29 -37 -28 -107 3
-161 13 -23 22 -44 19 -47 -3 -3 -22 -3 -42 -1 -20 2 -65 7 -101 10 -148 14
-350 90 -491 186 -144 97 -303 291 -376 462 -44 100 -82 250 -90 350 l-6 77
39 -16 c53 -23 134 -23 167 -1 75 49 -23 115 -123 83 -25 -7 -53 -17 -62 -21
-16 -6 -18 -1 -18 41 0 172 83 411 201 585 121 178 319 328 530 400 96 32 226
58 302 58 l67 1 -16 -25z m2806 -310 c0 -3 -26 -22 -57 -42 -32 -20 -92 -63
-133 -96 -41 -33 -81 -64 -88 -70 -8 -7 -18 -5 -30 6 -32 28 -70 26 -106 -8
-57 -53 -15 -145 66 -145 38 0 88 37 94 70 4 16 18 37 33 46 14 9 66 48 114
86 49 39 91 68 93 65 3 -3 -11 -45 -30 -93 -55 -140 -128 -345 -141 -394 l-12
-45 -257 0 -257 0 24 20 c13 11 59 47 102 80 131 99 147 122 106 145 -17 8
-30 1 -83 -43 -35 -29 -108 -86 -163 -127 -91 -67 -104 -74 -155 -78 l-55 -4
51 35 c138 96 234 276 234 442 0 54 0 54 38 64 86 23 305 60 417 71 66 6 127
13 135 15 27 5 60 5 60 0z m-325 -255 c12 -20 -6 -50 -30 -50 -30 0 -39 14
-25 40 11 21 44 27 55 10z m-5243 -74 c57 -13 149 -34 204 -46 l101 -23 44
-60 c52 -72 139 -139 218 -167 55 -21 58 -23 76 -75 25 -74 107 -180 186 -240
54 -40 71 -61 90 -105 17 -38 49 -80 106 -139 l83 -84 0 -168 c0 -92 -3 -174
-6 -183 -5 -13 -12 -11 -40 12 -19 15 -48 44 -66 66 -28 35 -31 44 -29 105 2
81 -24 280 -38 294 -7 7 -18 7 -37 -2 -25 -11 -26 -14 -20 -64 12 -82 24 -212
21 -215 -1 -2 -25 20 -51 49 -27 29 -56 59 -64 68 -36 37 -41 55 -60 212 -30
244 -26 229 -60 229 -37 0 -43 -20 -31 -101 5 -35 12 -95 16 -134 l6 -70 -60
64 c-33 35 -64 75 -70 90 -10 24 -63 241 -92 374 -16 76 -28 92 -62 83 -15 -3
-27 -13 -27 -22 0 -8 13 -72 30 -142 16 -70 32 -137 35 -148 6 -26 -57 39
-282 291 -88 99 -170 189 -183 200 -31 28 -63 75 -51 75 5 0 56 -11 113 -24z
m-138 -77 c-4 -7 -3 -9 4 -5 6 3 41 -29 81 -76 38 -46 101 -120 140 -165 l72
-83 -100 0 c-89 0 -101 -2 -111 -19 -7 -15 -6 -23 6 -35 12 -13 40 -16 134
-16 l119 0 112 -119 c62 -66 116 -126 120 -133 6 -11 -30 -13 -193 -13 -174 0
-202 -2 -211 -16 -6 -9 -7 -24 -4 -33 6 -14 33 -16 238 -16 l232 0 116 -121
c64 -67 118 -125 119 -130 2 -5 -88 -9 -205 -9 -149 0 -212 -3 -221 -12 -20
-20 -14 -48 14 -58 14 -6 132 -10 262 -10 l237 0 141 -145 141 -145 -370 0
-370 0 -79 81 c-226 235 -366 588 -447 1129 -11 74 -23 160 -26 190 l-6 55 31
-42 c18 -24 28 -48 24 -54z m1647 -270 c-5 -13 -10 -19 -10 -12 -1 15 10 45
15 40 3 -2 0 -15 -5 -28z m16 -41 c-3 -8 -6 -5 -6 6 -1 11 2 17 5 13 3 -3 4
-12 1 -19z m4172 19 c-72 -60 -145 -107 -165 -107 -13 0 -24 -6 -24 -13 0 -6
-62 -60 -137 -120 -76 -59 -243 -192 -372 -296 l-234 -189 -46 71 c-24 40 -46
74 -47 76 -2 2 -70 -50 -151 -115 -244 -197 -404 -313 -421 -306 -11 4 -12 7
-4 10 10 3 10 7 1 19 -11 12 -8 13 15 7 28 -7 66 17 66 42 0 7 4 14 10 16 22
7 73 170 64 203 -4 16 -3 17 5 5 8 -12 11 -7 11 22 0 20 5 40 10 43 6 3 10 24
10 46 0 26 4 39 13 39 8 0 33 18 56 40 40 36 43 42 37 77 -10 54 -8 93 4 107
12 15 19 145 8 152 -15 10 -8 35 26 81 18 27 37 58 40 71 l7 22 611 0 c336 0
609 -2 607 -3z m-4192 -39 c-3 -8 -6 -5 -6 6 -1 11 2 17 5 13 3 -3 4 -12 1
-19z m2873 -132 c0 -2 -8 -10 -17 -17 -16 -13 -17 -12 -4 4 13 16 21 21 21 13z
m1210 -10 c0 -2 -7 -7 -16 -10 -8 -3 -12 -2 -9 4 6 10 25 14 25 6z m-87 -69
c-53 -42 -68 -50 -28 -14 22 20 44 36 48 37 5 0 -4 -10 -20 -23z m-143 -117
c0 -5 -5 -10 -11 -10 -5 0 -7 5 -4 10 3 6 8 10 11 10 2 0 4 -4 4 -10z m211
-240 c1 -132 2 -246 3 -252 3 -17 -13 -38 -28 -38 -7 0 -10 16 -8 46 4 41 2
46 -19 51 -13 4 -26 6 -28 5 -10 -5 2 -127 12 -134 7 -4 26 -8 42 -8 l30 0 -3
-59 c-3 -51 -1 -60 15 -64 10 -3 -124 -5 -298 -6 l-317 -1 -40 63 c-60 92
-112 187 -103 187 5 0 14 -14 21 -30 17 -42 34 -51 27 -14 -4 25 -4 27 8 11
12 -16 16 -15 55 18 23 19 45 35 48 35 4 0 34 25 67 55 33 30 63 55 68 55 4 0
31 19 60 43 29 23 65 51 81 62 16 11 33 25 40 30 20 19 211 161 231 173 11 6
23 12 28 12 4 0 8 -108 8 -240z m-1391 179 c0 8 2 12 4 10 2 -2 1 -25 -4 -52
-4 -26 -5 -45 -3 -43 2 2 15 -7 28 -20 13 -13 36 -24 50 -24 20 0 25 -5 25
-24 0 -14 -5 -28 -12 -32 -8 -5 -9 -2 -5 9 3 10 2 17 -4 17 -10 0 -24 10 -60
43 -17 15 -25 16 -47 8 l-27 -11 28 4 c15 2 25 1 22 -2 -2 -3 0 -11 6 -19 9
-10 8 -13 -5 -13 -9 0 -16 5 -16 10 0 6 -9 10 -20 10 -24 0 -25 8 -5 34 10 13
15 15 15 6 0 -7 3 -10 6 -7 4 4 2 13 -4 20 -8 10 -8 24 -1 52 8 28 13 35 20
24 7 -12 9 -12 9 0z m995 -89 c-3 -5 -12 -10 -18 -10 -7 0 -6 4 3 10 19 12 23
12 15 0z m-84 -83 c-13 -13 -26 -3 -16 12 3 6 11 8 17 5 6 -4 6 -10 -1 -17z
m-3674 7 c-3 -3 -12 -4 -19 -1 -8 3 -5 6 6 6 11 1 17 -2 13 -5z m2783 -4 c0
-5 -2 -10 -4 -10 -3 0 -8 5 -11 10 -3 6 -1 10 4 10 6 0 11 -4 11 -10z m-4351
-87 c14 -35 7 -223 -9 -223 -9 0 -32 48 -50 104 -12 38 -8 175 6 198 7 10 32
-27 53 -79z m4392 60 c-12 -20 -14 -14 -5 12 4 9 9 14 11 11 3 -2 0 -13 -6
-23z m-2992 -35 c0 7 6 10 11 7 6 -3 10 -1 10 5 0 7 6 6 15 -3 7 -8 31 -18 52
-23 l38 -8 -40 -5 c-36 -5 -40 -9 -43 -37 -4 -39 20 -51 55 -29 18 12 22 21
17 38 -3 12 -3 18 2 14 5 -4 13 -22 19 -40 9 -29 14 -32 53 -33 24 0 39 2 34
5 -4 3 -5 17 -1 31 7 24 7 24 8 3 1 -13 5 -23 11 -23 5 0 7 -7 4 -15 -4 -8 -1
-15 5 -15 6 0 11 4 11 8 0 5 7 9 15 9 10 0 12 -4 5 -12 -5 -7 -7 -15 -4 -18 4
-3 -9 -14 -29 -23 -39 -18 -50 -44 -37 -78 10 -26 65 -76 84 -76 15 0 66 -38
65 -48 -4 -24 6 -31 44 -35 23 -2 -66 -4 -198 -5 l-240 -2 6 227 c3 126 7 230
9 233 1 3 6 -11 10 -30 4 -19 8 -29 9 -22z m-1937 -60 c29 -19 66 -43 81 -52
39 -24 25 -36 -40 -36 -92 0 -144 49 -159 153 l-6 42 36 -36 c20 -20 59 -52
88 -71z m4872 54 c-10 -15 -18 -30 -16 -34 1 -4 -5 -5 -13 -1 -13 4 -11 10 10
31 14 13 25 32 26 41 0 11 2 12 6 3 3 -7 -3 -25 -13 -40z m836 24 c0 -2 -8
-10 -17 -17 -16 -13 -17 -12 -4 4 13 16 21 21 21 13z m-790 -41 c0 -5 -5 -3
-10 5 -5 8 -10 20 -10 25 0 6 5 3 10 -5 5 -8 10 -19 10 -25z m-2713 -27 c-3
-8 -6 -5 -6 6 -1 11 2 17 5 13 3 -3 4 -12 1 -19z m2613 2 c0 -5 -8 -11 -17
-11 -10 -1 -28 -3 -40 -4 -36 -4 -27 13 10 18 17 2 35 5 40 5 4 1 7 -2 7 -8z
m35 -20 c3 -6 -1 -7 -9 -4 -18 7 -21 14 -7 14 6 0 13 -4 16 -10z m-45 -10 c0
-5 -2 -10 -4 -10 -3 0 -8 5 -11 10 -3 6 -1 10 4 10 6 0 11 -4 11 -10z m-89
-23 c-10 -9 -11 -8 -5 6 3 10 9 15 12 12 3 -3 0 -11 -7 -18z m209 -17 c0 -5
-2 -10 -4 -10 -3 0 -8 5 -11 10 -3 6 -1 10 4 10 6 0 11 -4 11 -10z m-2687 -15
c-3 -9 -8 -14 -10 -11 -3 3 -2 9 2 15 9 16 15 13 8 -4z m2437 -37 c-23 -35
-23 -31 -1 15 8 15 16 25 19 22 2 -2 -5 -19 -18 -37z m864 33 c-8 -8 -43 -8
-38 0 2 4 13 7 24 6 10 -1 17 -3 14 -6z m-744 -71 c0 -5 -2 -10 -4 -10 -3 0
-8 5 -11 10 -3 6 -1 10 4 10 6 0 11 -4 11 -10z m-170 -39 c-5 -11 -15 -23 -22
-27 -7 -5 -8 -2 -3 7 21 37 44 55 25 20z m155 -111 c-3 -5 -12 -10 -18 -10 -7
0 -6 4 3 10 19 12 23 12 15 0z m-266 -19 c-7 -10 -21 -24 -33 -31 -15 -9 -12
-3 8 19 34 35 41 39 25 12z m221 -11 c-8 -5 -19 -10 -25 -10 -5 0 -3 5 5 10 8
5 20 10 25 10 6 0 3 -5 -5 -10z"/>
<path d="M5024 5349 c3 -17 6 -41 6 -53 1 -16 2 -18 9 -6 11 19 2 90 -11 90
-6 0 -8 -13 -4 -31z"/>
<path d="M5851 6484 c0 -11 3 -14 6 -6 3 7 2 16 -1 19 -3 4 -6 -2 -5 -13z"/>
<path d="M5262 6261 c-21 -28 -22 -37 -16 -131 4 -55 9 -98 12 -96 2 3 6 50 8
106 2 56 8 108 15 116 6 7 9 18 7 24 -2 6 -13 -2 -26 -19z m-5 -93 c-3 -8 -6
-5 -6 6 -1 11 2 17 5 13 3 -3 4 -12 1 -19z"/>
<path d="M5282 6220 c0 -14 2 -19 5 -12 2 6 2 18 0 25 -3 6 -5 1 -5 -13z"/>
<path d="M5276 6168 c-9 -35 -7 -88 3 -88 5 0 11 -10 14 -22 2 -13 3 10 2 50
-3 78 -9 97 -19 60z"/>
<path d="M7150 5280 c0 -12 8 -12 35 0 18 8 17 9 -7 9 -16 1 -28 -3 -28 -9z"/>
<path d="M7063 5253 c9 -2 25 -2 35 0 9 3 1 5 -18 5 -19 0 -27 -2 -17 -5z"/>
<path d="M5518 4293 c7 -3 16 -2 19 1 4 3 -2 6 -13 5 -11 0 -14 -3 -6 -6z"/>
<path d="M6643 4018 c-13 -6 -25 -20 -29 -31 -3 -11 -9 -15 -13 -9 -4 7 -13 6
-26 -4 -18 -14 -18 -15 15 -49 18 -19 37 -32 42 -29 4 3 8 0 8 -5 0 -16 -11
-14 -32 6 -22 19 -23 6 -2 -22 12 -16 18 -17 32 -8 9 7 32 20 50 29 18 9 35
20 38 25 6 10 -45 109 -55 108 -3 0 -16 -5 -28 -11z m40 -100 c-2 -5 -10 -8
-16 -8 -9 0 -9 2 0 8 8 5 9 13 3 22 -6 8 -10 22 -9 30 0 8 6 2 13 -15 7 -16
11 -33 9 -37z m-77 25 c-7 -7 -26 7 -26 19 0 6 6 6 15 -2 9 -7 13 -15 11 -17z
m28 -18 c-4 -8 -8 -15 -10 -15 -2 0 -4 7 -4 15 0 8 4 15 10 15 5 0 7 -7 4 -15z"/>
<path d="M6990 3739 l-45 -6 58 -1 c31 -1 57 0 57 2 0 9 -28 11 -70 5z"/>
<path d="M6993 3613 c9 -2 25 -2 35 0 9 3 1 5 -18 5 -19 0 -27 -2 -17 -5z"/>
<path d="M7890 4746 c0 -10 60 -126 65 -126 3 0 -9 28 -26 63 -33 65 -39 75
-39 63z"/>
<path d="M6221 4494 c0 -11 3 -14 6 -6 3 7 2 16 -1 19 -3 4 -6 -2 -5 -13z"/>
<path d="M6139 4069 c0 -2 -2 -11 -4 -20 -1 -9 3 -16 10 -16 7 0 12 6 11 13
-2 13 -15 31 -17 23z"/>
<path d="M5570 4137 c3 -3 32 -10 65 -16 33 -6 77 -15 97 -20 21 -5 36 -5 33
-1 -5 9 -66 22 -155 36 -25 3 -43 4 -40 1z"/>
<path d="M6013 3976 c3 -7 1 -18 -5 -24 -17 -17 0 -30 37 -28 48 4 52 11 16
32 -17 10 -31 22 -31 26 0 4 -5 8 -11 8 -6 0 -9 -6 -6 -14z m42 -29 c11 -11 8
-14 -16 -14 -37 0 -38 17 -1 26 2 1 9 -5 17 -12z"/>
<path d="M5940 3910 c-13 -8 -13 -10 2 -10 9 0 20 5 23 10 8 13 -5 13 -25 0z"/>
<path d="M5967 3896 c-13 -10 -14 -15 -5 -23 27 -21 34 -21 35 0 2 15 0 18 -6
8 -6 -8 -11 -9 -15 -3 -4 6 2 15 11 21 10 6 14 10 8 10 -5 0 -18 -6 -28 -13z"/>
<path d="M6110 3901 c0 -5 5 -13 10 -16 6 -3 10 -2 10 4 0 5 -4 13 -10 16 -5
3 -10 2 -10 -4z"/>
<path d="M6141 3888 c2 -2 17 -14 33 -28 l29 -25 -19 27 c-10 15 -25 28 -33
28 -8 0 -12 -1 -10 -2z"/>
<path d="M6252 3790 c7 -11 19 -22 28 -25 8 -4 4 5 -9 19 -29 31 -36 33 -19 6z"/>
<path d="M6145 3749 c-11 -16 -1 -19 13 -3 7 8 8 14 3 14 -5 0 -13 -5 -16 -11z"/>
<path d="M6335 3708 c1 -13 6 -21 11 -19 10 3 7 21 -5 34 -4 4 -7 -3 -6 -15z"/>
<path d="M4207 3433 c-49 -81 -73 -132 -102 -210 -38 -104 -22 -86 24 29 23
57 59 132 82 167 22 35 38 65 36 68 -3 2 -21 -22 -40 -54z"/>
<path d="M4066 3125 c-3 -9 -6 -24 -5 -33 0 -9 5 -4 10 12 9 32 6 48 -5 21z"/>
<path d="M6511 3074 c0 -11 3 -14 6 -6 3 7 2 16 -1 19 -3 4 -6 -2 -5 -13z"/>
<path d="M6562 2985 c0 -16 2 -22 5 -12 2 9 2 23 0 30 -3 6 -5 -1 -5 -18z"/>
<path d="M4051 2784 c0 -11 3 -14 6 -6 3 7 2 16 -1 19 -3 4 -6 -2 -5 -13z"/>
<path d="M6546 2709 c4 -26 3 -30 -5 -19 -10 13 -11 13 -10 0 0 -8 6 -28 12
-44 12 -28 13 -27 12 26 0 31 -4 60 -8 64 -4 4 -5 -8 -1 -27z"/>
<path d="M4061 2674 c0 -11 3 -14 6 -6 3 7 2 16 -1 19 -3 4 -6 -2 -5 -13z"/>
<path d="M4042 2640 c0 -14 2 -19 5 -12 2 6 2 18 0 25 -3 6 -5 1 -5 -13z"/>
<path d="M6508 2501 c-19 -40 -24 -72 -9 -55 10 11 35 84 29 89 -1 1 -11 -14
-20 -34z"/>
<path d="M6416 2310 c9 -38 18 -42 31 -15 8 18 8 27 1 32 -7 3 -8 1 -4 -5 4
-7 1 -12 -8 -12 -8 0 -17 6 -20 13 -3 6 -3 1 0 -13z"/>
<path d="M6397 2293 c-4 -3 -7 -13 -7 -22 0 -14 2 -14 11 -1 8 12 9 11 6 -5
-2 -11 -10 -19 -18 -17 -12 3 -12 1 0 -10 11 -10 14 -10 18 0 3 6 9 10 13 7 5
-3 4 8 -1 25 -12 33 -12 33 -22 23z"/>
<path d="M6372 2200 c-18 -29 -15 -38 4 -12 9 13 14 25 12 27 -2 2 -9 -5 -16
-15z"/>
<path d="M6316 2135 c-9 -13 -16 -30 -16 -37 1 -7 6 -3 13 10 7 12 15 20 18
18 3 -3 5 4 5 14 0 25 0 25 -20 -5z"/>
<path d="M6239 2054 c-12 -16 -12 -17 5 -11 14 6 17 4 12 -10 -6 -15 -4 -15
14 2 22 20 27 30 9 19 -6 -3 -15 -1 -19 5 -5 9 -11 7 -21 -5z"/>
<path d="M6163 1995 c1 -5 -5 -9 -13 -7 -12 2 -11 -1 2 -11 10 -8 15 -17 11
-20 -3 -4 -12 -2 -20 5 -10 8 -17 8 -26 -1 -9 -10 -8 -11 6 -6 9 4 17 3 17 -3
0 -12 -29 -24 -41 -17 -5 4 -6 -1 -3 -9 3 -9 11 -16 18 -16 6 0 2 -7 -8 -15
-11 -8 -17 -17 -14 -21 4 -3 15 3 27 15 13 13 16 21 8 24 -7 2 -9 8 -5 12 4 4
14 3 21 -4 21 -16 38 8 32 45 -5 27 -4 28 10 10 8 -11 18 -17 21 -13 4 4 2 13
-4 20 -7 8 -9 17 -6 20 4 3 -3 5 -14 4 -11 0 -20 -6 -19 -12z m0 -66 c-8 -8
-13 -7 -18 2 -5 8 -4 10 3 5 7 -4 12 -2 12 5 0 7 3 9 7 6 4 -4 2 -12 -4 -18z"/>
<path d="M4330 1996 c0 -2 8 -10 18 -17 15 -13 16 -12 3 4 -13 16 -21 21 -21
13z"/>
<path d="M4560 1946 c0 -2 7 -7 16 -10 8 -3 12 -2 9 4 -6 10 -25 14 -25 6z"/>
<path d="M4450 1876 c0 -2 8 -10 18 -17 15 -13 16 -12 3 4 -13 16 -21 21 -21
13z"/>
<path d="M4555 1820 c-8 -13 3 -30 20 -30 8 0 18 -8 24 -17 8 -16 11 -15 21
11 11 29 1 47 -25 45 -5 0 -4 -3 3 -6 6 -2 12 -11 12 -19 0 -11 -4 -12 -19 -5
-10 6 -22 7 -26 3 -5 -4 -5 1 -2 11 7 19 2 23 -8 7z"/>
<path d="M4750 1811 c0 -5 -7 -17 -16 -25 -8 -9 -12 -16 -7 -16 15 0 43 39 33
45 -6 4 -10 2 -10 -4z"/>
<path d="M4700 1750 c-9 -6 -10 -10 -3 -10 6 0 15 5 18 10 8 12 4 12 -15 0z"/>
<path d="M4745 1740 c-8 -13 5 -13 25 0 13 8 13 10 -2 10 -9 0 -20 -4 -23 -10z"/>
<path d="M4930 1730 c8 -5 22 -9 30 -9 10 0 8 3 -5 9 -27 12 -43 12 -25 0z"/>
<path d="M4848 1718 c8 -8 17 -8 34 0 22 10 21 11 -11 11 -27 1 -32 -2 -23
-11z"/>
<path d="M5690 1720 c-8 -5 -10 -10 -5 -10 6 0 17 5 25 10 8 5 11 10 5 10 -5
0 -17 -5 -25 -10z"/>
<path d="M4995 1710 c11 -5 27 -9 35 -9 9 0 8 4 -5 9 -11 5 -27 9 -35 9 -9 0
-8 -4 5 -9z"/>
<path d="M4950 1700 c8 -5 20 -10 25 -10 6 0 3 5 -5 10 -8 5 -19 10 -25 10 -5
0 -3 -5 5 -10z"/>
<path d="M5166 1671 c-3 -4 6 -6 19 -3 14 2 25 6 25 8 0 8 -39 4 -44 -5z"/>
<path d="M5412 1673 c-24 -3 -32 -9 -28 -18 3 -8 -3 -19 -12 -25 -16 -11 -15
-11 1 -6 10 3 28 6 39 6 12 0 18 3 15 7 -4 3 0 15 10 25 9 10 14 17 12 16 -2
0 -19 -3 -37 -5z"/>
<path d="M5081 1666 c2 -2 18 -6 34 -10 22 -5 26 -4 15 4 -14 9 -59 15 -49 6z"/>
<path d="M5200 1649 c0 -11 58 -16 111 -11 77 7 57 18 -31 17 -44 0 -80 -3
-80 -6z"/>
<path d="M5468 1653 c6 -2 18 -2 25 0 6 3 1 5 -13 5 -14 0 -19 -2 -12 -5z"/>
<path d="M5548 1643 c6 -2 18 -2 25 0 6 3 1 5 -13 5 -14 0 -19 -2 -12 -5z"/>
<path d="M5158 1633 c6 -2 18 -2 25 0 6 3 1 5 -13 5 -14 0 -19 -2 -12 -5z"/>
<path d="M5458 1633 c12 -2 32 -2 45 0 12 2 2 4 -23 4 -25 0 -35 -2 -22 -4z"/>
<path d="M5359 3498 c4 -28 6 -29 9 -9 2 13 0 27 -5 32 -6 6 -7 -3 -4 -23z"/>
<path d="M5889 3472 c-46 -32 -164 -115 -261 -184 -198 -141 -214 -152 -228
-143 -6 4 -9 2 -8 -3 2 -6 -34 -38 -79 -71 -134 -98 -180 -182 -148 -268 9
-24 28 -57 42 -73 22 -26 23 -31 8 -36 -9 -4 -14 -13 -11 -21 3 -8 2 -12 -3
-9 -13 9 -228 -194 -311 -294 -19 -23 -44 -51 -54 -63 -19 -20 -19 -20 0 -14
13 5 10 -1 -11 -19 -28 -26 -28 -26 -5 -20 l25 7 -25 -21 c-25 -21 -25 -21 -1
-10 46 23 201 142 195 151 -3 5 3 6 12 2 13 -5 15 -3 9 7 -5 8 -4 11 3 6 5 -3
23 4 39 17 15 13 39 30 52 37 16 8 20 14 12 20 -9 5 -8 9 4 13 9 4 13 3 10 -3
-3 -6 -2 -10 4 -10 5 0 14 7 19 16 5 8 22 25 38 36 16 11 21 18 12 14 -10 -3
-20 0 -24 7 -4 7 -4 9 1 5 4 -4 16 -3 26 3 11 5 18 6 17 2 -3 -8 5 -13 23 -13
5 0 7 6 3 13 -5 9 -4 9 6 0 10 -9 18 -6 38 12 23 22 75 42 95 37 4 -1 7 11 7
27 0 23 8 34 35 51 19 12 52 43 72 68 20 26 40 51 44 55 4 5 10 3 14 -4 5 -8
4 -10 -3 -5 -7 4 -12 2 -12 -5 0 -8 15 -10 52 -5 28 4 55 9 60 12 14 9 9 89
-7 110 -15 19 -15 19 -9 -1 5 -19 5 -19 -6 -2 -6 10 -9 24 -7 31 3 8 68 101
144 207 230 321 240 337 223 370 -17 30 -40 23 -131 -39z m-588 -567 c-17 -20
-31 -45 -31 -55 0 -11 -4 -20 -10 -20 -18 0 -11 59 10 80 11 11 20 18 20 15 0
-4 8 -1 18 4 27 16 26 13 -7 -24z m95 -2 c32 -43 4 -103 -47 -103 -34 0 -64
38 -54 69 15 49 74 69 101 34z m-81 -122 c-6 -5 -25 10 -25 20 0 5 6 4 14 -3
8 -7 12 -15 11 -17z m-315 -406 c0 -2 -10 -9 -22 -15 -22 -11 -22 -10 -4 4 21
17 26 19 26 11z m-108 -82 c-15 -12 -31 -22 -37 -23 -5 0 1 7 13 16 12 8 20
19 18 23 -3 3 4 7 15 7 16 0 15 -3 -9 -23z"/>
<path d="M5323 3460 c0 -25 2 -35 4 -22 2 12 2 32 0 45 -2 12 -4 2 -4 -23z"/>
<path d="M5373 3420 c0 -25 2 -35 4 -22 2 12 2 32 0 45 -2 12 -4 2 -4 -23z"/>
<path d="M5312 3350 c0 -19 2 -27 5 -17 2 9 2 25 0 35 -3 9 -5 1 -5 -18z"/>
<path d="M5382 3340 c0 -19 2 -27 5 -17 2 9 2 25 0 35 -3 9 -5 1 -5 -18z"/>
<path d="M5386 3285 c-3 -8 -1 -15 4 -15 6 0 10 7 10 15 0 8 -2 15 -4 15 -2 0
-6 -7 -10 -15z"/>
<path d="M5301 3274 c0 -11 3 -14 6 -6 3 7 2 16 -1 19 -3 4 -6 -2 -5 -13z"/>
<path d="M5948 2873 c7 -3 16 -2 19 1 4 3 -2 6 -13 5 -11 0 -14 -3 -6 -6z"/>
<path d="M6021 2866 c4 -4 21 -11 39 -16 19 -5 29 -6 24 -1 -10 10 -72 26 -63
17z"/>
<path d="M4605 2850 c-8 -13 5 -13 25 0 13 8 13 10 -2 10 -9 0 -20 -4 -23 -10z"/>
<path d="M5391 2444 c0 -11 3 -14 6 -6 3 7 2 16 -1 19 -3 4 -6 -2 -5 -13z"/>
<path d="M5301 2384 c0 -11 3 -14 6 -6 3 7 2 16 -1 19 -3 4 -6 -2 -5 -13z"/>
<path d="M7428 3245 c-14 -30 3 -55 37 -55 25 0 38 21 28 48 -14 38 -49 42
-65 7z"/>
<path d="M7567 2773 c-9 -8 -9 -86 -1 -107 10 -25 43 -19 54 9 12 32 23 32 40
0 8 -14 21 -24 29 -23 21 4 29 107 9 119 -23 15 -38 10 -49 -18 l-10 -28 -21
28 c-19 26 -38 34 -51 20z"/>
<path d="M7256 2745 c-8 -30 -27 -32 -44 -4 -17 27 -56 22 -60 -9 -5 -33 24
-72 52 -72 13 0 35 9 50 21 l26 20 0 -50 c0 -44 3 -51 20 -51 18 0 20 7 20 79
0 63 -3 80 -16 85 -29 11 -42 6 -48 -19z"/>
<path d="M7382 2693 c3 -69 6 -79 25 -89 33 -16 83 -6 83 17 0 14 -7 19 -28
19 -29 0 -29 0 -28 63 1 61 0 62 -27 65 l-28 3 3 -78z"/>
<path d="M7925 2132 c-3 -3 -5 -18 -5 -32 0 -27 -1 -27 -45 -22 -44 4 -45 4
-45 -23 0 -27 1 -27 50 -23 44 4 50 3 50 -13 0 -16 -8 -19 -50 -19 -47 0 -50
-2 -50 -25 0 -24 2 -25 69 -25 l68 0 7 38 c3 20 6 60 6 88 0 47 -2 52 -25 56
-13 3 -27 3 -30 0z"/>
<path d="M4040 2120 c-8 -5 -10 -10 -5 -10 6 0 17 5 25 10 8 5 11 10 5 10 -5
0 -17 -5 -25 -10z"/>
<path d="M2986 7624 c-9 -8 -16 -24 -16 -34 0 -23 204 -210 229 -210 19 0 51
30 51 48 0 12 -164 165 -207 194 -34 22 -38 22 -57 2z"/>
<path d="M2413 7561 c-6 -3 -15 -16 -22 -28 -9 -19 -8 -25 11 -43 38 -36 194
-130 215 -130 42 0 59 53 26 82 -29 25 -177 114 -200 120 -11 3 -25 3 -30 -1z"/>
<path d="M1222 7243 c-5 -10 -15 -35 -21 -55 -19 -59 -46 -84 -121 -113 -39
-15 -70 -31 -70 -35 0 -5 26 -18 58 -30 85 -32 101 -45 132 -116 16 -35 33
-64 39 -64 5 0 17 21 27 47 27 69 65 107 134 133 34 13 59 27 57 33 -2 6 -27
19 -57 29 -70 23 -93 46 -126 124 -28 67 -37 75 -52 47z"/>
<path d="M1985 7244 c-8 -9 -15 -26 -15 -38 0 -19 18 -31 105 -74 133 -65 152
-70 170 -46 34 45 16 64 -113 122 -112 49 -129 53 -147 36z"/>
<path d="M2365 7074 c-8 -9 -15 -25 -15 -37 0 -18 17 -31 85 -65 98 -48 119
-51 140 -18 23 35 11 50 -65 85 -100 46 -127 53 -145 35z"/>
<path d="M2692 6938 c-10 -13 -15 -34 -13 -55 1 -12 54 -43 106 -63 23 -9 27
-6 45 31 l21 40 -63 29 c-70 33 -81 35 -96 18z"/>
<path d="M1863 6928 c-55 -27 -50 -114 8 -138 72 -30 141 59 92 119 -21 25
-70 35 -100 19z"/>
<path d="M8437 6863 c-2 -5 -18 -53 -35 -108 -42 -136 -63 -156 -201 -194
-111 -31 -118 -43 -38 -61 88 -21 152 -49 180 -78 15 -16 36 -61 52 -112 35
-113 43 -132 54 -125 5 3 23 49 40 104 45 143 65 164 210 205 41 12 76 26 78
32 2 6 -31 21 -74 33 -43 13 -93 30 -111 38 -39 19 -74 76 -97 158 -29 105
-44 133 -58 108z"/>
<path d="M2264 6655 c-9 -14 -14 -32 -10 -40 14 -37 152 -69 175 -42 26 33 9
59 -54 83 -77 29 -91 29 -111 -1z"/>
<path d="M2542 6598 c-16 -16 -15 -53 1 -66 6 -5 32 -15 57 -22 25 -6 52 -13
62 -16 12 -3 19 5 28 32 14 42 11 46 -54 68 -59 19 -78 20 -94 4z"/>
<path d="M1282 6348 c-17 -17 -15 -53 3 -68 20 -17 62 -5 70 20 14 44 -41 80
-73 48z"/>
<path d="M8858 6305 c-9 -21 -8 -28 7 -45 24 -27 51 -25 70 4 23 34 5 66 -36
66 -22 0 -32 -6 -41 -25z"/>
<path d="M2420 6210 c-14 -26 -5 -57 18 -64 9 -3 46 -10 82 -15 72 -10 80 -6
80 45 0 31 -1 32 -63 43 -88 15 -105 14 -117 -9z"/>
<path d="M1112 5768 c-19 -19 -14 -55 10 -72 18 -13 52 -16 164 -16 124 0 143
2 157 18 20 22 22 53 5 70 -8 8 -60 12 -168 12 -108 0 -160 -4 -168 -12z"/>
<path d="M8728 5769 c-23 -13 -24 -65 -2 -73 9 -3 51 -6 94 -6 56 0 81 4 90
15 17 21 4 61 -22 69 -36 9 -141 6 -160 -5z"/>
<path d="M9022 5758 c-17 -17 -15 -65 4 -72 9 -3 42 -6 73 -6 52 0 59 2 69 25
15 32 15 31 -4 49 -19 19 -124 22 -142 4z"/>
<path d="M2228 5495 c-8 -19 -8 -28 2 -40 32 -38 94 1 70 45 -16 29 -58 26
-72 -5z"/>
<path d="M8724 5330 c-26 -10 -36 -43 -20 -65 9 -13 33 -15 146 -13 l135 3 3
30 c6 46 -17 55 -137 54 -58 0 -116 -4 -127 -9z"/>
<path d="M1243 5315 c-27 -19 -30 -47 -7 -69 24 -25 138 -22 164 4 24 24 24
30 6 55 -19 27 -131 33 -163 10z"/>
<path d="M1196 4901 c-22 -24 -18 -49 9 -67 37 -25 82 25 57 62 -14 23 -48 25
-66 5z"/>
<path d="M2304 4777 c-14 -30 -14 -38 0 -88 10 -34 13 -55 6 -57 -20 -7 -48
-38 -55 -59 -4 -16 0 -25 15 -33 32 -17 52 -6 44 25 -5 19 -2 25 10 25 9 0 16
-6 15 -12 -6 -48 11 -60 46 -34 16 12 17 17 6 43 -7 17 -23 35 -37 42 -24 11
-24 12 -9 42 26 50 20 121 -11 133 -10 4 -20 -5 -30 -27z"/>
<path d="M7900 4491 c0 -5 7 -12 16 -15 14 -5 15 -4 4 9 -14 17 -20 19 -20 6z"/>
<path d="M1068 4464 c-16 -34 0 -59 38 -59 22 0 31 6 38 27 19 54 -52 84 -76
32z"/>
<path d="M1837 4162 c-10 -10 -17 -25 -17 -33 0 -8 -9 -2 -21 14 -41 55 -121
25 -105 -39 8 -29 36 -32 43 -4 7 26 20 26 28 0 8 -24 54 -50 90 -50 31 0 75
41 75 70 0 25 -34 60 -58 60 -11 0 -26 -8 -35 -18z m43 -36 c0 -16 -28 -42
-36 -33 -8 7 14 47 26 47 6 0 10 -6 10 -14z"/>
<path d="M1964 3835 c-9 -22 48 -80 70 -72 21 8 20 27 -2 53 -24 30 -60 40
-68 19z"/>
<path d="M1902 3777 c-23 -27 -24 -65 -3 -86 53 -53 127 13 91 80 -12 22 -71
27 -88 6z m58 -52 c0 -8 -7 -15 -15 -15 -8 0 -15 7 -15 15 0 8 7 15 15 15 8 0
15 -7 15 -15z"/>
<path d="M2288 3704 c-19 -6 -40 -57 -32 -79 7 -17 48 -45 67 -45 8 0 21 -7
28 -17 13 -15 10 -16 -29 -9 -43 6 -43 6 -40 -21 5 -46 74 -44 104 3 24 36 6
69 -46 85 -28 9 -39 17 -35 27 3 7 5 16 5 18 0 2 7 4 15 4 8 0 15 -4 15 -10 0
-12 47 -13 54 -1 17 27 -58 59 -106 45z"/>
<path d="M8818 3425 c-10 -22 -9 -29 10 -47 20 -20 22 -20 46 -4 29 18 31 28
16 57 -16 28 -58 25 -72 -6z"/>
<path d="M8267 3373 c-4 -3 -7 -11 -7 -17 0 -6 5 -4 10 4 8 13 12 13 32 1 21
-13 22 -13 9 2 -14 18 -33 22 -44 10z"/>
<path d="M8576 3204 c-10 -25 -7 -41 9 -57 32 -32 87 12 65 53 -13 25 -65 28
-74 4z"/>
<path d="M8826 3204 c-20 -19 -20 -48 -1 -64 19 -16 45 -9 62 17 13 19 12 24
-6 42 -25 25 -35 26 -55 5z"/>
<path d="M1728 3014 c-17 -36 0 -59 42 -59 24 0 35 6 41 21 19 53 -60 90 -83
38z"/>
<path d="M8580 2985 c-15 -19 -6 -61 16 -69 18 -7 64 18 64 35 0 42 -54 65
-80 34z"/>
<path d="M8838 2992 c-23 -5 -34 -48 -18 -67 18 -21 46 -18 64 7 24 34 -4 70
-46 60z"/>
<path d="M2040 2823 c-29 -81 -43 -97 -108 -122 -34 -14 -61 -29 -59 -35 2 -6
25 -18 52 -28 61 -22 91 -50 108 -102 17 -52 36 -52 54 -1 19 55 48 82 115
107 67 24 65 33 -15 62 -58 22 -82 46 -100 99 -16 50 -34 58 -47 20z"/>
<path d="M8578 2764 c-11 -23 -10 -29 11 -45 21 -17 26 -18 45 -6 28 19 32 48
10 64 -28 20 -53 15 -66 -13z"/>
<path d="M8755 2304 c-20 -20 -16 -63 7 -77 12 -8 24 -7 42 1 37 16 37 68 0
82 -32 13 -30 13 -49 -6z"/>
<path d="M2278 1558 c-24 -20 -28 -44 -12 -67 15 -20 22 -21 274 -21 l260 0
16 25 c15 23 15 27 0 50 l-16 25 -253 0 c-188 0 -257 -3 -269 -12z"/>
<path d="M7382 1558 c-17 -17 -15 -54 4 -72 13 -14 51 -16 263 -16 227 0 249
2 264 18 23 25 21 48 -5 66 -19 13 -62 16 -268 16 -178 0 -249 -3 -258 -12z"/>
<path d="M2865 1343 c-30 -8 -45 -23 -45 -47 0 -45 6 -46 365 -46 362 0 365 0
365 48 0 47 -39 52 -367 51 -164 -1 -307 -4 -318 -6z"/>
<path d="M6780 1343 c-14 -3 -31 -10 -37 -15 -19 -15 -16 -52 5 -71 16 -15 49
-17 258 -17 260 0 284 5 284 55 0 50 -25 55 -265 54 -121 -1 -231 -4 -245 -6z"/>
<path d="M6431 1291 c-23 -41 20 -81 58 -55 15 11 21 24 19 42 -2 22 -9 28
-35 30 -23 2 -34 -2 -42 -17z"/>
<path d="M3745 1276 c-18 -26 -11 -52 16 -67 43 -22 86 36 53 72 -23 26 -50
24 -69 -5z"/>
<path d="M4260 1265 c-12 -33 -3 -54 26 -61 30 -8 54 11 54 40 0 49 -63 65
-80 21z"/>
<path d="M5942 1268 c-7 -7 -12 -21 -12 -33 0 -44 60 -63 80 -26 14 27 13 37
-6 55 -18 19 -45 21 -62 4z"/>
<path d="M4757 1202 c-22 -24 -21 -35 1 -55 15 -14 42 -17 153 -17 142 0 159
5 159 45 0 40 -17 45 -160 45 -120 0 -139 -2 -153 -18z"/>
</g>
</svg>
